<?xml version="1.0" encoding="UTF-8"?>
<svg version="1.1" xmlns="http://www.w3.org/2000/svg" width="448" height="512">
<path d="M0 0 C7.80175433 5.95708791 11.37150667 14.04114937 12.78979492 23.52880859 C14.48325158 44.43008747 6.26387904 70.47141329 3.05078125 89.75 C33.74078125 89.75 64.43078125 89.75 96.05078125 89.75 C99.83229599 66.83627434 99.83229599 66.83627434 103.58886719 43.91845703 C104.33251953 39.45678711 104.33251953 39.45678711 104.68511963 37.35910034 C104.92578145 35.91439508 105.16202838 34.46894963 105.39459229 33.0229187 C109.19719066 9.44061894 109.19719066 9.44061894 118.05078125 1.75 C127.79367398 -5.06385852 136.35697255 -6.32532643 148.05078125 -5.25 C156.62312135 -3.3143103 163.07518689 1.45650743 167.86328125 8.75 C177.52779748 24.58265457 170.53708844 46.89788683 167.55078125 63.8125 C167.11589471 66.33636612 166.68229108 68.86045365 166.25 71.38476562 C165.19836027 77.50913982 164.13095668 83.63059778 163.05078125 89.75 C164.2389595 89.75546844 164.2389595 89.75546844 165.45114136 89.76104736 C172.95352972 89.79907496 180.45542957 89.85609305 187.95750237 89.93390274 C191.81348123 89.97324074 195.66923642 90.00549551 199.52539062 90.02099609 C203.25395029 90.03625387 206.98189443 90.0708576 210.71017838 90.11830902 C212.12531274 90.13302969 213.54053503 90.14103561 214.9557457 90.14188385 C225.90871537 90.15503886 235.25768048 91.33061815 243.51953125 99.046875 C250.91319416 107.27043885 252.63268192 115.98445635 252.36328125 126.76171875 C251.8889549 135.14741331 248.27608602 142.152937 242.05078125 147.75 C235.29186351 152.83270614 228.88845883 155.0421196 220.39306641 155.06884766 C219.63901709 155.07900091 218.88496777 155.08915417 218.10806847 155.0996151 C215.68533129 155.13006794 213.2627105 155.14735433 210.83984375 155.1640625 C209.33682259 155.18101196 207.83381096 155.19883024 206.33081055 155.2175293 C200.7792435 155.28053502 195.22749628 155.32676397 189.67578125 155.375 C171.05140625 155.560625 171.05140625 155.560625 152.05078125 155.75 C145.12078125 197.33 138.19078125 238.91 131.05078125 281.75 C151.99180847 281.92029536 151.99180847 281.92029536 172.93310547 282.04785156 C175.5739108 282.07723773 178.21470063 282.10806644 180.85546875 282.140625 C181.52845001 282.14092712 182.20143127 282.14122925 182.89480591 282.14154053 C193.87028167 282.15488259 203.23891412 283.31309108 211.51953125 291.046875 C218.91319416 299.27043885 220.63268192 307.98445635 220.36328125 318.76171875 C219.8889549 327.14741331 216.27608602 334.152937 210.05078125 339.75 C203.29184852 344.83271742 196.88860416 347.04221529 188.39306641 347.06884766 C187.65091888 347.07889328 186.90877136 347.0889389 186.14413452 347.09928894 C183.70937827 347.12999488 181.27473134 347.14712068 178.83984375 347.1640625 C177.1444709 347.18278431 175.44910727 347.20235847 173.75375366 347.2227478 C169.30525153 347.27396808 164.85671923 347.31364772 160.40808105 347.35089111 C155.86312456 347.39099427 151.3182925 347.44205776 146.7734375 347.4921875 C137.86597296 347.58882707 128.95843799 347.67326999 120.05078125 347.75 C119.90932678 348.61728729 119.76787231 349.48457458 119.62213135 350.37814331 C118.28091911 358.58855166 116.92864732 366.79704724 115.5642128 375.00362968 C114.86328299 379.22183538 114.16650909 383.44063694 113.47949219 387.66113281 C112.81516836 391.74122684 112.13958991 395.81931679 111.4564743 399.89630508 C111.19899316 401.44480537 110.9454369 402.99396404 110.69605255 404.54378891 C106.90440225 428.05935464 106.90440225 428.05935464 98.05078125 435.75 C88.30788852 442.56385852 79.74458995 443.82532643 68.05078125 442.75 C59.47844115 440.8143103 53.02637561 436.04349257 48.23828125 428.75 C38.63884482 413.02396079 45.53263409 390.96688709 48.55078125 374.1875 C50.03578125 365.793125 51.52078125 357.39875 53.05078125 348.75 C6.52078125 348.255 6.52078125 348.255 -40.94921875 347.75 C-41.27921875 351.71 -41.60921875 355.67 -41.94921875 359.75 C-42.23847194 361.96117209 -42.55463444 364.169295 -42.91723633 366.36962891 C-43.19806816 368.09169052 -43.19806816 368.09169052 -43.48457336 369.84854126 C-43.68560165 371.04578827 -43.88662994 372.24303528 -44.09375 373.4765625 C-44.30480881 374.74543304 -44.51586761 376.01430359 -44.73332214 377.32162476 C-45.17774921 379.98619289 -45.62631908 382.650026 -46.07739258 385.31347656 C-46.64982009 388.69802173 -47.20722226 392.08485707 -47.7609911 395.47249794 C-48.29930703 398.74639925 -48.85383993 402.01751022 -49.40625 405.2890625 C-49.6012056 406.49035797 -49.79616119 407.69165344 -49.99702454 408.92935181 C-51.8319184 419.58112233 -54.38796347 429.54620502 -62.94921875 436.75 C-71.85030652 442.66258942 -80.98446488 444.95556084 -91.57421875 443.1875 C-101.9952654 440.31793643 -108.54312844 433.97284091 -114.04296875 424.95703125 C-120.90912678 410.55717205 -113.98235333 388.92933546 -111.44921875 374.25 C-111.01443204 371.6733781 -110.58082863 369.09655624 -110.1484375 366.51953125 C-109.09566263 360.26065002 -108.02830723 354.0043953 -106.94921875 347.75 C-107.74133759 347.74635437 -108.53345642 347.74270874 -109.34957886 347.73895264 C-116.85196722 347.70092504 -124.35386707 347.64390695 -131.85593987 347.56609726 C-135.71191873 347.52675926 -139.56767392 347.49450449 -143.42382812 347.47900391 C-147.15238779 347.46374613 -150.88033193 347.4291424 -154.60861588 347.38169098 C-156.02375024 347.36697031 -157.43897253 347.35896439 -158.8541832 347.35811615 C-169.80715287 347.34496114 -179.15611798 346.16938185 -187.41796875 338.453125 C-194.81163166 330.22956115 -196.53111942 321.51554365 -196.26171875 310.73828125 C-195.7873924 302.35258669 -192.17452352 295.347063 -185.94921875 289.75 C-179.19030101 284.66729386 -172.78689633 282.4578804 -164.29150391 282.43115234 C-163.53745459 282.42099909 -162.78340527 282.41084583 -162.00650597 282.4003849 C-159.58376879 282.36993206 -157.161148 282.35264567 -154.73828125 282.3359375 C-153.23526009 282.31898804 -151.73224846 282.30116976 -150.22924805 282.2824707 C-144.677681 282.21946498 -139.12593378 282.17323603 -133.57421875 282.125 C-114.94984375 281.939375 -114.94984375 281.939375 -95.94921875 281.75 C-85.55421875 219.38 -85.55421875 219.38 -74.94921875 155.75 C-95.89024597 155.57970464 -95.89024597 155.57970464 -116.83154297 155.45214844 C-119.4723483 155.42276227 -122.11313813 155.39193356 -124.75390625 155.359375 C-125.42688751 155.35907288 -126.09986877 155.35877075 -126.79324341 155.35845947 C-137.76871917 155.34511741 -147.13735162 154.18690892 -155.41796875 146.453125 C-162.81163166 138.22956115 -164.53111942 129.51554365 -164.26171875 118.73828125 C-163.7873924 110.35258669 -160.17452352 103.347063 -153.94921875 97.75 C-147.19028602 92.66728258 -140.78704166 90.45778471 -132.29150391 90.43115234 C-131.54935638 90.42110672 -130.80720886 90.4110611 -130.04257202 90.40071106 C-127.60781577 90.37000512 -125.17316884 90.35287932 -122.73828125 90.3359375 C-121.0429084 90.31721569 -119.34754477 90.29764153 -117.65219116 90.2772522 C-113.20368903 90.22603192 -108.75515673 90.18635228 -104.30651855 90.14910889 C-99.76156206 90.10900573 -95.21673 90.05794224 -90.671875 90.0078125 C-81.76441046 89.91117293 -72.85687549 89.82673001 -63.94921875 89.75 C-63.80776428 88.88271271 -63.66630981 88.01542542 -63.52056885 87.12185669 C-62.17935661 78.91144834 -60.82708482 70.70295276 -59.4626503 62.49637032 C-58.76172049 58.27816462 -58.06494659 54.05936306 -57.37792969 49.83886719 C-56.71360586 45.75877316 -56.03802741 41.68068321 -55.3549118 37.60369492 C-55.09743066 36.05519463 -54.8438744 34.50603596 -54.59449005 32.95621109 C-50.80283975 9.44064536 -50.80283975 9.44064536 -41.94921875 1.75 C-29.18967617 -7.17360414 -13.43737558 -8.61715468 0 0 Z M-7.94921875 154.75 C-9.17827164 159.05168512 -10.23656715 162.85216335 -10.94900513 167.18540955 C-11.20555374 168.72701248 -11.20555374 168.72701248 -11.46728516 170.29975891 C-11.73702148 171.95916756 -11.73702148 171.95916756 -12.01220703 173.65209961 C-12.2075705 174.83330383 -12.40293396 176.01450806 -12.60421753 177.23150635 C-13.13597721 180.45158487 -13.66410427 183.67223329 -14.19058847 186.89317775 C-14.74282846 190.26623192 -15.29975336 193.6385124 -15.85617065 197.01087952 C-16.90771243 203.38852308 -17.95507091 209.76684616 -19.00090873 216.14542729 C-20.30935677 224.12426161 -21.62342119 232.10216958 -22.9375 240.08007812 C-25.28011755 254.30250578 -27.61427012 268.52630658 -29.94921875 282.75 C1.07078125 282.75 32.09078125 282.75 64.05078125 282.75 C65.27983414 278.44831488 66.33812965 274.64783665 67.05056763 270.31459045 C67.22160004 269.28685516 67.39263245 268.25911987 67.56884766 267.20024109 C67.74867188 266.09396866 67.92849609 264.98769623 68.11376953 263.84790039 C68.309133 262.66669617 68.50449646 261.48549194 68.70578003 260.26849365 C69.23753971 257.04841513 69.76566677 253.82776671 70.29215097 250.60682225 C70.84439096 247.23376808 71.40131586 243.8614876 71.95773315 240.48912048 C73.00927493 234.11147692 74.05663341 227.73315384 75.10247123 221.35457271 C76.41091927 213.37573839 77.72498369 205.39783042 79.0390625 197.41992188 C81.38168005 183.19749422 83.71583262 168.97369342 86.05078125 154.75 C55.03078125 154.75 24.01078125 154.75 -7.94921875 154.75 Z " fill="#FFFFFF" transform="translate(195.94921875,37.25)"/>
</svg>
