<?xml version="1.0" encoding="UTF-8"?>
<svg version="1.1" xmlns="http://www.w3.org/2000/svg" width="81" height="81">
<path d="M0 0 C0.77472656 0.42410156 1.54945312 0.84820313 2.34765625 1.28515625 C10.98160555 6.45976025 17.73693309 15.10061552 20.53051758 24.85180664 C22.71769084 34.85957448 22.22537407 47.12825898 17 56 C16.57589844 56.77472656 16.15179688 57.54945312 15.71484375 58.34765625 C10.54023975 66.98160555 1.89938448 73.73693309 -7.85180664 76.53051758 C-17.85957448 78.71769084 -30.12825898 78.22537407 -39 73 C-39.77472656 72.57589844 -40.54945312 72.15179688 -41.34765625 71.71484375 C-49.98160555 66.54023975 -56.73693309 57.89938448 -59.53051758 48.14819336 C-61.71769084 38.14042552 -61.22537407 25.87174102 -56 17 C-55.57589844 16.22527344 -55.15179688 15.45054688 -54.71484375 14.65234375 C-49.54023975 6.01839445 -40.89938448 -0.73693309 -31.14819336 -3.53051758 C-21.14042552 -5.71769084 -8.87174102 -5.22537407 0 0 Z " fill="#000000" transform="translate(60,4)"/>
<path d="M0 0 C1.32 0 2.64 0 4 0 C1.60471932 10.52662823 -1.68219301 20.73519909 -5 31 C-6.32 31 -7.64 31 -9 31 C-6.60471932 20.47337177 -3.31780699 10.26480091 0 0 Z " fill="#E8E8E8" transform="translate(50,25)"/>
<path d="M0 0 C2.25413168 0.12916466 3.96407867 -0.22395738 6.11328125 -0.87890625 C5.77588498 1.65156575 5.50717345 2.80295005 3.48828125 4.43359375 C-0.87791911 5.69749385 -5.19196712 4.25062371 -9.57421875 3.43359375 C-12.91056461 3.11884414 -14.17008829 3.27378504 -16.88671875 5.12109375 C-16.51171875 2.68359375 -16.51171875 2.68359375 -15.88671875 0.12109375 C-11.16952629 -2.23750248 -5.07073504 -0.72953737 0 0 Z " fill="#E4E4E4" transform="translate(31.88671875,38.87890625)"/>
<path d="M0 0 C0.99 0 1.98 0 3 0 C2.85831863 1.43791516 2.71148957 2.8753237 2.5625 4.3125 C2.48128906 5.11300781 2.40007813 5.91351563 2.31640625 6.73828125 C2 9 2 9 1 12 C-0.32 12 -1.64 12 -3 12 C-2.01 8.04 -1.02 4.08 0 0 Z " fill="#D8D8D8" transform="translate(44,44)"/>
<path d="M0 0 C1.32 0 2.64 0 4 0 C3.34 2.97 2.68 5.94 2 9 C1.34 8.34 0.68 7.68 0 7 C-0.99 7.495 -0.99 7.495 -2 8 C-1.34 5.36 -0.68 2.72 0 0 Z " fill="#CFCFCF" transform="translate(50,25)"/>
<path d="M0 0 C1.65 0 3.3 0 5 0 C5 1.65 5 3.3 5 5 C3.35 5 1.7 5 0 5 C0 3.35 0 1.7 0 0 Z " fill="#C9C9C9" transform="translate(57,47)"/>
</svg>
