<?xml version="1.0" encoding="UTF-8"?>
<svg version="1.1" xmlns="http://www.w3.org/2000/svg" width="81" height="82">
<path d="M0 0 C7.26058175 5.23576605 13.87007814 12.40396795 15.5546875 21.45703125 C16.6347994 32.24724008 16.31940845 41.41351659 9.5546875 50.45703125 C5.61230754 54.45416648 1.13200148 57.43262664 -4.4453125 58.45703125 C-8.6560543 58.3746146 -12.344774 57.95727602 -16.1953125 56.20703125 C-16.9378125 55.95953125 -17.6803125 55.71203125 -18.4453125 55.45703125 C-20.11594997 56.45038326 -21.78206849 57.45134883 -23.4453125 58.45703125 C-29.06663723 58.99239551 -32.62781883 58.6686937 -37.4453125 55.45703125 C-42.92123799 49.85665291 -44.72985352 44.78280685 -44.7578125 37.01953125 C-44.60477351 28.60238701 -42.44763962 23.59894737 -36.4453125 17.45703125 C-31.68987657 14.21468857 -27.05892771 13.67112512 -21.4453125 14.45703125 C-19.171875 15.4765625 -19.171875 15.4765625 -17.4453125 16.45703125 C-16.9503125 15.96203125 -16.9503125 15.96203125 -16.4453125 15.45703125 C-14.42567051 15.38459072 -12.40364126 15.37325937 -10.3828125 15.39453125 C-8.72572266 15.40806641 -8.72572266 15.40806641 -7.03515625 15.421875 C-6.18050781 15.43347656 -5.32585938 15.44507812 -4.4453125 15.45703125 C-4.53619141 16.25399414 -4.62707031 17.05095703 -4.72070312 17.87207031 C-5.13120867 21.48346657 -5.53829845 25.0952399 -5.9453125 28.70703125 C-6.08839844 29.96128906 -6.23148438 31.21554688 -6.37890625 32.5078125 C-6.51425781 33.71308594 -6.64960937 34.91835938 -6.7890625 36.16015625 C-6.91474609 37.27036133 -7.04042969 38.38056641 -7.16992188 39.52441406 C-7.50764234 42.62985789 -7.50764234 42.62985789 -7.4453125 46.45703125 C-4.00719456 46.17052142 -2.70360057 45.72269898 -0.2578125 43.20703125 C3.77619141 37.08647359 4.32531797 31.64958231 3.5546875 24.45703125 C1.74830113 17.23148578 -2.36401081 12.58962853 -8.4453125 8.45703125 C-15.50803505 4.24338998 -24.4345263 4.22521298 -32.2578125 6.1484375 C-41.3928378 9.47659458 -46.3914087 14.3556861 -50.5 23.08984375 C-54.02540947 31.91793523 -53.27831358 41.284083 -49.70703125 49.98046875 C-46.50023964 56.2749142 -42.0222808 60.78597678 -35.4453125 63.45703125 C-24.77464076 66.82773081 -16.07531937 65.04344056 -5.4453125 62.45703125 C0.71258224 61.03597862 0.71258224 61.03597862 3.5546875 62.45703125 C5.11322932 65.5741149 4.24253394 68.14286205 3.5546875 71.45703125 C1.80562219 72.10539167 0.05539531 72.75061909 -1.6953125 73.39453125 C-3.15710937 73.93400391 -3.15710937 73.93400391 -4.6484375 74.484375 C-10.39920459 76.4842926 -15.51285887 76.67319073 -21.5703125 76.70703125 C-22.47007813 76.72765625 -23.36984375 76.74828125 -24.296875 76.76953125 C-35.50616115 76.83395243 -44.65725364 73.55603549 -53.0703125 66.14453125 C-62.75786788 55.18229753 -66.39579154 45.41943832 -65.828125 30.77734375 C-65.03320128 19.28344667 -59.39058133 11.13063765 -51.3828125 3.26953125 C-37.49092721 -8.39137246 -15.33084466 -9.67361604 0 0 Z M-31.4453125 30.45703125 C-32.93725534 34.93285977 -32.98519063 39.35150655 -31.8203125 43.89453125 C-30.43879048 45.7106098 -30.43879048 45.7106098 -27.6328125 46.51953125 C-24.28664816 46.77056997 -24.28664816 46.77056997 -21.6953125 44.33203125 C-18.72659217 40.53866639 -17.37190701 38.25546587 -17.5703125 33.39453125 C-18.59265318 29.96238755 -19.54880878 28.5489506 -22.4453125 26.45703125 C-26.92155983 25.56178178 -28.68129092 27.00200427 -31.4453125 30.45703125 Z " fill="#000000" transform="translate(65.4453125,5.54296875)"/>
</svg>
