<?xml version="1.0" encoding="UTF-8"?>
<svg version="1.1" xmlns="http://www.w3.org/2000/svg" width="480" height="512">
<path d="M0 0 C21.83772647 -0.52997594 42.26982037 0.77140948 63 8 C63.63599121 8.22026855 64.27198242 8.44053711 64.92724609 8.66748047 C80.07539856 14.03659397 97.4825233 22.4825233 109 34 C118.36348072 33.81398757 127.79513577 31.55309763 136.97851562 29.90429688 C155.96082009 26.62060473 174.77437299 25.64900772 194.02685547 25.68432617 C197.60024819 25.68747817 201.17280288 25.66394649 204.74609375 25.63867188 C226.74881974 25.57816752 248.24049043 27.67364974 269.76953125 32.23046875 C276.49462727 33.56862627 276.49462727 33.56862627 282.83203125 31.3828125 C283.81558594 30.63773438 284.79914063 29.89265625 285.8125 29.125 C298.03087251 20.21956929 310.707239 12.99537512 325 8 C326.61455078 7.43345703 326.61455078 7.43345703 328.26171875 6.85546875 C343.85340183 1.73495291 359.71339376 -0.18514188 376.0625 -0.0625 C377.21427734 -0.05798828 378.36605469 -0.05347656 379.55273438 -0.04882812 C382.36854518 -0.03714426 385.18424398 -0.02076281 388 0 C403.65578926 28.86414745 406.38690765 60.7320094 397.25 92.4375 C396.98703125 93.21996094 396.7240625 94.00242187 396.453125 94.80859375 C395.86406575 97.65740615 396.06780971 99.22828753 397 102 C398.54974412 104.2039513 400.1303566 106.27845311 401.8125 108.375 C418.7795176 130.67490982 428.0328868 157.46839863 432 185 C432.1750708 186.19367188 432.3501416 187.38734375 432.53051758 188.6171875 C433.14452826 193.6263693 433.18069522 198.61475918 433.203125 203.65625 C433.20882507 204.67561646 433.21452515 205.69498291 433.22039795 206.74523926 C433.22981339 208.90355404 433.23636813 211.06188298 433.24023438 213.22021484 C433.24980601 216.43484744 433.28080586 219.64880202 433.3125 222.86328125 C433.52613419 264.4677911 425.43877876 308.56043973 395.25 339.25 C346.01194468 387.68547903 267.44332408 384.54953658 203.46844107 384.38570696 C198.53928229 384.37440109 193.61030448 384.37846905 188.68115234 384.39111328 C47.79450875 384.74328141 47.79450875 384.74328141 1 345 C0.12214844 344.26007813 -0.75570312 343.52015625 -1.66015625 342.7578125 C-31.99894546 316.30861165 -43.81848512 276.03523784 -47 237 C-47.15159927 233.8929547 -47.20849997 230.79008919 -47.23828125 227.6796875 C-47.24802979 226.82604614 -47.25777832 225.97240479 -47.26782227 225.09289551 C-47.48868736 200.76571012 -46.44200693 178.07316849 -38 155 C-37.57074219 153.79859375 -37.14148437 152.5971875 -36.69921875 151.359375 C-30.74912919 135.60420827 -22.73311456 117.52653579 -10.54125977 105.56933594 C-8.85801804 103.95585539 -8.85801804 103.95585539 -7 101 C-7.25189025 97.90890242 -7.65357984 95.76210064 -8.5625 92.875 C-8.97940417 91.35885144 -9.39345823 89.84191635 -9.8046875 88.32421875 C-10.01319336 87.58606934 -10.22169922 86.84791992 -10.43652344 86.08740234 C-18.49491572 56.23503927 -13.38045414 27.18507254 0 0 Z M36.8046875 209.7109375 C21.21499155 229.48488084 17.90571676 255.57116322 20.46875 279.9296875 C23.21114507 301.74359442 32.46391821 321.59575734 49.5 335.9375 C104.49967329 378.18122496 199.7259578 371.17749936 264.5534668 363.35913086 C296.43174584 359.14400277 328.12960463 349.94927693 349.87109375 324.78515625 C366.43160182 303.11975762 371.03354952 275.19478653 367.49609375 248.5546875 C363.53702144 226.88159453 353.39490247 206.93115543 335.171875 194.00390625 C322.35955749 185.90942487 309.19745865 182.42080645 294.125 182.5 C292.29146973 182.50314209 292.29146973 182.50314209 290.42089844 182.50634766 C275.71498367 182.74578027 261.23420111 184.90245484 246.7052002 187.04196167 C241.4084228 187.81653686 236.10578533 188.50214808 230.7890625 189.125 C230.10620178 189.20503265 229.42334106 189.28506531 228.7197876 189.36752319 C200.98147789 192.55085431 173.07181762 191.47274275 145.48046875 187.53125 C85.71688121 178.4194883 85.71688121 178.4194883 36.8046875 209.7109375 Z " fill="#FFFFFF" transform="translate(47,64)"/>
<path d="M0 0 C11.78111352 7.70303576 17.4180817 22.54286047 20.43359375 35.7421875 C23.86803457 55.49614365 21.18910336 76.01009421 10 93 C4.62860471 100.25472683 -0.4087712 104.13625707 -9 107 C-19.8410749 107.77118453 -26.77428144 106.96054117 -35.125 99.9375 C-48.03519817 87.62041966 -52.79874206 69.17495689 -53.3125 51.75 C-52.99671752 35.27010179 -48.35184058 17.52334545 -37.19140625 4.96484375 C-26.15593935 -5.49331502 -13.40426206 -6.42641045 0 0 Z " fill="#FFFFFF" transform="translate(165,277)"/>
<path d="M0 0 C13.14540456 9.45511648 19.66021822 23.75100167 22.60742188 39.37646484 C25.62414614 59.53673781 21.62539291 79.15538859 10.56640625 96.2109375 C6.22014808 101.849992 -0.29889303 105.76629768 -7 108 C-17.54124608 108.95954126 -24.61293679 107.69567425 -33.109375 101.44921875 C-44.554804 91.4455589 -49.83568833 74.37860821 -51.21875 59.67431641 C-52.48562181 40.42974177 -48.25423653 21.36437848 -35.5625 6.375 C-26.28998435 -3.26145398 -12.12486348 -6.48587246 0 0 Z " fill="#FFFFFF" transform="translate(347,276)"/>
</svg>
