<?xml version="1.0" encoding="UTF-8"?>
<svg version="1.1" xmlns="http://www.w3.org/2000/svg" width="448" height="512">
<path d="M0 0 C3.8106357 0.01709033 7.6206419 0.0068902 11.43125629 -0.01032829 C129.49149832 -0.46039118 129.49149832 -0.46039118 168.07275391 33.39111328 C168.75724609 33.94412109 169.44173828 34.49712891 170.14697266 35.06689453 C196.10469678 56.43484425 209.32909559 92.10687132 212.85810852 124.63197327 C213.29784851 130.28457181 213.23587181 135.95105147 213.24072266 141.61767578 C213.24395113 143.01028474 213.24731627 144.40289339 213.25080872 145.79550171 C213.25677775 148.71881895 213.25865173 151.64210679 213.25805664 154.56542969 C213.25797657 157.49322856 213.26472688 160.42086698 213.27856445 163.34863281 C213.40066094 189.61934812 212.50602921 215.74233214 209.13525391 241.82861328 C208.90032227 243.77864258 208.90032227 243.77864258 208.66064453 245.76806641 C205.27406027 272.92820233 205.27406027 272.92820233 200.57275391 281.64111328 C200.23091064 282.2967627 199.88906738 282.95241211 199.53686523 283.62792969 C195.73864606 290.5471074 190.72494059 295.9485544 185.07275391 301.39111328 C184.19619141 302.26380859 183.31962891 303.13650391 182.41650391 304.03564453 C175.60706341 310.55468242 168.17983126 315.66800306 160.07275391 320.39111328 C159.42032715 320.77154785 158.76790039 321.15198242 158.09570312 321.54394531 C131.27973604 336.93841642 102.48381303 342.19149532 72.07275391 345.39111328 C71.26577057 345.47938385 70.45878723 345.56765442 69.62734985 345.65859985 C54.05473621 347.32995093 38.57942584 347.73318819 22.92358398 347.70678711 C19.03877396 347.70363641 15.1547358 347.72716339 11.27001953 347.75244141 C-12.00871123 347.81175729 -35.05606449 345.97934865 -57.98974609 341.89111328 C-59.17632812 341.69130859 -60.36291016 341.49150391 -61.58544922 341.28564453 C-69.4368705 339.93476986 -77.1837512 338.26092514 -84.92724609 336.39111328 C-83.45962152 354.85228561 -80.52107852 372.46972947 -65.92724609 385.39111328 C-35.61654317 406.21356937 12.59896188 405.29289715 47.60791016 399.45751953 C57.70932223 397.56101311 67.73590706 395.27742185 77.73217773 392.89428711 C80.07275391 392.39111328 80.07275391 392.39111328 82.07275391 392.39111328 C83.1190662 400.40111749 83.39263777 408.38364379 83.63525391 416.45361328 C83.67855018 417.80974344 83.72216756 419.16586339 83.76611328 420.52197266 C83.87147501 423.81159999 83.97360342 427.10129387 84.07275391 430.39111328 C54.78929476 445.6224427 20.12932217 449.02013733 -12.36474609 448.76611328 C-13.43497009 448.76146057 -14.50519409 448.75680786 -15.60784912 448.75201416 C-31.25457318 448.67242935 -46.49947465 448.18963926 -61.92724609 445.39111328 C-63.14460449 445.18180176 -64.36196289 444.97249023 -65.61621094 444.75683594 C-94.60568383 439.75707637 -122.60235248 433.29499695 -145.92724609 414.39111328 C-146.89017578 413.61123047 -147.85310547 412.83134766 -148.84521484 412.02783203 C-189.78472066 376.74710135 -199.26615455 316.87279012 -203.53271484 266.07470703 C-204.74276326 249.22376247 -205.1031905 232.44682241 -205.13037109 215.55517578 C-205.13319847 214.35213177 -205.13602585 213.14908775 -205.1389389 211.90958786 C-205.15380967 205.55056296 -205.16311711 199.19156006 -205.16748047 192.83251953 C-205.17296768 186.33210564 -205.1970366 179.83190088 -205.22545242 173.33155251 C-205.24423042 168.267786 -205.24929226 163.20406859 -205.25081635 158.14027023 C-205.25380592 155.74611638 -205.26170596 153.35196259 -205.27500153 150.95784378 C-205.36947948 132.64985275 -204.61993391 114.34724318 -199.23974609 96.70361328 C-198.98483398 95.84678955 -198.72992188 94.98996582 -198.46728516 94.10717773 C-191.92916707 72.94421904 -181.46682333 55.10455991 -165.92724609 39.39111328 C-165.26337891 38.65505859 -164.59951172 37.91900391 -163.91552734 37.16064453 C-137.22930913 8.15891931 -88.07143278 4.87131921 -51.16162109 1.77001953 C-50.3977861 1.70549465 -49.63395111 1.64096977 -48.8469696 1.57448959 C-32.56227369 0.23010648 -16.33333981 -0.07375404 0 0 Z M-111.36474609 97.82861328 C-120.28327019 108.67698608 -125.44021421 120.82846336 -127.67724609 134.64111328 C-127.79285889 135.35388428 -127.90847168 136.06665527 -128.02758789 136.80102539 C-130.63471918 154.88861736 -130.08849013 173.29322408 -130.05581665 191.51841736 C-130.05222239 193.78103767 -130.05062245 196.04365159 -130.04956055 198.30627441 C-130.0351534 223.01630247 -129.64325166 247.68892117 -128.92724609 272.39111328 C-113.74724609 272.39111328 -98.56724609 272.39111328 -82.92724609 272.39111328 C-82.91266357 268.68715332 -82.89808105 264.98319336 -82.88305664 261.16699219 C-82.83266399 248.91339517 -82.7662093 236.65992909 -82.69153118 224.4064579 C-82.6466553 216.97899423 -82.60722196 209.55157762 -82.58081055 202.12402344 C-82.55776371 195.64662081 -82.52429172 189.16936818 -82.47854453 182.69208467 C-82.45470189 179.26560361 -82.43591473 175.83927027 -82.42963219 172.41270828 C-82.41997452 168.57797589 -82.39189332 164.74377941 -82.35961914 160.90917969 C-82.36105423 159.78564087 -82.36248932 158.66210205 -82.3639679 157.5045166 C-82.22639659 145.90576394 -79.67310884 137.24405322 -71.45068359 128.89111328 C-64.33809743 122.5011963 -57.10613674 121.65777 -47.87646484 121.98876953 C-39.04380471 122.888635 -33.26654909 127.04040197 -27.68505859 133.78564453 C-22.05357414 142.13275593 -19.84041037 150.8157664 -19.72192383 160.75170898 C-19.71202423 161.47420334 -19.70212463 162.19669769 -19.69192505 162.94108582 C-19.66047404 165.31632267 -19.63561789 167.69157949 -19.61083984 170.06689453 C-19.59025613 171.71885176 -19.56925929 173.3708039 -19.54786682 175.02275085 C-19.49279247 179.36113341 -19.44331892 183.69956234 -19.39501953 188.0380249 C-19.3358427 193.24856871 -19.26969559 198.45902816 -19.20471954 203.66950226 C-19.10689429 211.57665421 -19.01791231 219.4838614 -18.92724609 227.39111328 C-3.74724609 227.39111328 11.43275391 227.39111328 27.07275391 227.39111328 C27.11013672 222.33283203 27.14751953 217.27455078 27.18603516 212.06298828 C27.21635226 208.83639333 27.24752443 205.60985105 27.28173828 202.38330078 C27.33582643 197.27493118 27.38694404 192.16666575 27.41918945 187.05810547 C27.44541981 182.93412625 27.4859573 178.81050196 27.53594017 174.68674469 C27.55247675 173.12253524 27.56407248 171.5582646 27.57036781 169.99398041 C27.63714315 154.91060135 29.34352204 140.65434077 40.05322266 129.22314453 C46.69162961 123.20106937 53.43403791 121.71947296 62.23388672 121.86279297 C67.90835611 122.14665161 72.30544126 123.34769494 77.07275391 126.39111328 C77.95962891 126.92736328 78.84650391 127.46361328 79.76025391 128.01611328 C89.62364907 138.1460867 91.5232396 151.15138205 91.50512695 164.76904297 C91.52041443 166.52731415 91.52041443 166.52731415 91.53601074 168.32110596 C91.56593105 172.15178335 91.57537471 175.98220982 91.58447266 179.81298828 C91.60133491 182.48628471 91.61934423 185.15954896 91.63887024 187.83282471 C91.68231724 194.12227477 91.71099731 200.41169936 91.73419362 206.70125318 C91.76136317 213.86954801 91.8052667 221.03771099 91.85048234 228.20591116 C91.94301583 242.93424412 92.01263078 257.66260909 92.07275391 272.39111328 C106.92275391 272.39111328 121.77275391 272.39111328 137.07275391 272.39111328 C137.80617735 247.08800437 138.20462331 221.80819776 138.25442505 196.49671936 C138.26017813 194.29511161 138.26986116 192.09355556 138.28076172 189.89196777 C139.51079418 138.96610536 139.51079418 138.96610536 116.91259766 95.03955078 C102.93490484 81.89899746 84.56382893 75.9980919 65.61181641 76.17236328 C51.49624308 77.04484905 39.06260271 81.57508072 28.07275391 90.39111328 C26.88746094 91.33277344 26.88746094 91.33277344 25.67822266 92.29345703 C18.44590299 98.75464084 14.0587758 106.67537547 9.36254883 115.07495117 C8.8337915 116.01717529 8.30503418 116.95939941 7.76025391 117.93017578 C7.28974609 118.78820801 6.81923828 119.64624023 6.33447266 120.53027344 C5.91810547 121.14435059 5.50173828 121.75842773 5.07275391 122.39111328 C4.41275391 122.39111328 3.75275391 122.39111328 3.07275391 122.39111328 C1.84277344 120.56201172 1.84277344 120.56201172 0.45556641 118.00048828 C-0.06287842 117.06849609 -0.58132324 116.13650391 -1.11547852 115.17626953 C-1.67211182 114.17466797 -2.22874512 113.17306641 -2.80224609 112.14111328 C-13.4744935 93.54911501 -26.01223986 83.06642849 -46.92724609 77.39111328 C-70.35002718 73.32980227 -94.99066589 80.2069841 -111.36474609 97.82861328 Z " fill="#FFFFFF" transform="translate(219.92724609375,31.60888671875)"/>
</svg>
