<?xml version="1.0" encoding="UTF-8"?>
<svg version="1.1" xmlns="http://www.w3.org/2000/svg" width="512" height="512">
<path d="M0 0 C38.74122822 -1.01323212 75.95565575 13.8717881 104.1015625 40.12109375 C105.52662109 41.48234375 105.52662109 41.48234375 106.98046875 42.87109375 C109.15399908 44.7824731 110.89081212 46.02440654 113.5390625 47.12109375 C114.06371094 46.55003906 114.58835937 45.97898438 115.12890625 45.390625 C142.34546694 16.90607146 179.43199795 1.68478552 218.515625 -0.0078125 C259.77125669 -0.79114728 296.52699638 15.38280625 326.5390625 43.12109375 C339.43538746 55.6617871 349.24142898 70.76087589 356.5390625 87.12109375 C357.08175781 88.30832031 357.62445313 89.49554688 358.18359375 90.71875 C364.56690013 105.57003749 368.60822952 122.15878812 368.77734375 138.34375 C368.7871376 139.11804855 368.79693146 139.89234711 368.80702209 140.69010925 C368.97568446 157.48508155 369.03493996 173.80044271 364.5390625 190.12109375 C364.21760254 191.30106934 364.21760254 191.30106934 363.88964844 192.50488281 C360.72943713 203.68752282 356.08736064 213.93764908 350.5390625 224.12109375 C349.97316406 225.17941406 349.40726562 226.23773438 348.82421875 227.328125 C342.94874922 237.87632089 335.53624492 247.11475647 327.4140625 255.99609375 C326.71470581 256.76264282 326.71470581 256.76264282 326.0012207 257.54467773 C322.73599761 261.03872132 319.24357089 264.17860413 315.62304688 267.29980469 C312.10786071 270.37188632 308.73759734 273.59567712 305.3515625 276.80859375 C300.23054528 281.64851832 295.10006793 286.4758132 289.9140625 291.24609375 C285.2703847 295.51798687 280.64836108 299.81212107 276.0390625 304.12109375 C270.86135916 308.9607476 265.66585973 313.78015246 260.453125 318.58203125 C256.29935093 322.41160832 252.16652113 326.26318344 248.0390625 330.12109375 C242.86131599 334.96070171 237.66586007 339.78015214 232.453125 344.58203125 C228.29935093 348.41160832 224.16652113 352.26318344 220.0390625 356.12109375 C214.86131599 360.96070171 209.66586007 365.78015214 204.453125 370.58203125 C200.29935093 374.41160832 196.16652113 378.26318344 192.0390625 382.12109375 C186.86131599 386.96070171 181.66586007 391.78015214 176.453125 396.58203125 C172.94094575 399.82008919 169.44225391 403.07216306 165.9519043 406.33374023 C164.68068746 407.52156135 163.40871907 408.70857868 162.13598633 409.89477539 C159.09620275 412.72800605 156.06425272 415.56847204 153.05078125 418.4296875 C140.43233784 430.35505163 128.62926813 439.28406858 110.5390625 439.12109375 C96.37409676 438.25535462 86.47319336 431.77266699 76.5390625 422.12109375 C75.02416911 420.71346295 73.49963386 419.31678616 71.97436523 417.92041016 C65.98586616 412.43373055 60.05982784 406.87911092 54.1262207 401.33325195 C50.11024792 397.58153545 46.08117802 393.84461888 42.0390625 390.12109375 C36.7126558 385.21450236 31.41563175 380.27715236 26.125 375.33203125 C22.10936299 371.58079832 18.08075497 367.84422918 14.0390625 364.12109375 C8.7126558 359.21450236 3.41563175 354.27715236 -1.875 349.33203125 C-5.89063701 345.58079832 -9.91924503 341.84422918 -13.9609375 338.12109375 C-19.2873442 333.21450236 -24.58436825 328.27715236 -29.875 323.33203125 C-33.89063701 319.58079832 -37.91924503 315.84422918 -41.9609375 312.12109375 C-47.2873442 307.21450236 -52.58436825 302.27715236 -57.875 297.33203125 C-62.41514393 293.09082684 -66.97483486 288.87151202 -71.54467773 284.66235352 C-76.36237959 280.22106908 -81.15294647 275.75101007 -85.93212891 271.26831055 C-88.84767087 268.53824813 -91.77383642 265.82665719 -94.76171875 263.17578125 C-101.37008974 257.30029545 -107.12970375 251.18239278 -112.4609375 244.12109375 C-112.86554199 243.5914502 -113.27014648 243.06180664 -113.68701172 242.51611328 C-131.65784567 218.85209703 -143.38524403 189.73216501 -143.69921875 159.765625 C-143.7090126 158.99000717 -143.71880646 158.21438934 -143.72889709 157.41526794 C-143.89400504 140.96170089 -143.98661965 125.0778416 -139.4609375 109.12109375 C-139.26790039 108.38729492 -139.07486328 107.65349609 -138.87597656 106.89746094 C-133.4818487 86.74698328 -122.86273663 68.0022696 -109.4609375 52.12109375 C-108.97657227 51.54182129 -108.49220703 50.96254883 -107.99316406 50.36572266 C-82.94142909 20.804006 -46.02215292 3.98196645 -7.8359375 0.37109375 C-5.22434302 0.22112824 -2.61260591 0.1285568 0 0 Z M-71.76171875 83.61328125 C-89.52204668 104.64978617 -96.51118835 131.04529382 -95.2734375 158.12109375 C-92.37885539 189.70822097 -76.73290316 214.18260645 -53.20703125 234.6953125 C-49.61640149 237.86712058 -46.13561033 241.14887284 -42.6484375 244.43359375 C-37.75162239 249.03882967 -32.84433896 253.63109008 -27.8984375 258.18359375 C-23.23456248 262.47696388 -18.5918864 266.79222738 -13.9609375 271.12109375 C-9.30835285 275.46987489 -4.64499277 279.80622511 0.0390625 284.12109375 C5.3654692 289.02768514 10.66249325 293.96503514 15.953125 298.91015625 C19.96876201 302.66138918 23.99737003 306.39795832 28.0390625 310.12109375 C33.3654692 315.02768514 38.66249325 319.96503514 43.953125 324.91015625 C47.96876201 328.66138918 51.99737003 332.39795832 56.0390625 336.12109375 C61.3654692 341.02768514 66.66249325 345.96503514 71.953125 350.91015625 C76.48872686 355.14711766 81.04283598 359.36333575 85.60961914 363.56665039 C88.57611587 366.29987323 91.53030402 369.04547219 94.47265625 371.8046875 C95.13910156 372.42923828 95.80554688 373.05378906 96.4921875 373.69726562 C97.77609033 374.90155637 99.05872884 376.10719704 100.33984375 377.31445312 C103.97214756 380.7207293 107.68219575 383.97082854 111.5390625 387.12109375 C116.25863959 385.69745532 119.05235912 382.9306633 122.3515625 379.43359375 C126.22726137 375.38196196 130.22076743 371.60023241 134.46606445 367.93579102 C137.97549231 364.86364671 141.34362221 361.64357404 144.7265625 358.43359375 C149.84757972 353.59366918 154.97805707 348.7663743 160.1640625 343.99609375 C164.8077403 339.72420063 169.42976392 335.43006643 174.0390625 331.12109375 C179.21676584 326.2814399 184.41226527 321.46203504 189.625 316.66015625 C193.77877407 312.83057918 197.91160387 308.97900406 202.0390625 305.12109375 C207.21680901 300.28148579 212.41226493 295.46203536 217.625 290.66015625 C221.77877407 286.83057918 225.91160387 282.97900406 230.0390625 279.12109375 C235.21680901 274.28148579 240.41226493 269.46203536 245.625 264.66015625 C249.77877407 260.83057918 253.91160387 256.97900406 258.0390625 253.12109375 C262.16681881 249.26290519 266.29944678 245.41050542 270.4543457 241.58154297 C271.50841487 240.61012997 272.56164221 239.63780271 273.61401367 238.66455078 C276.53113941 235.96693596 279.4601232 233.28351958 282.40234375 230.61328125 C304.61322076 210.34856278 319.04733579 185.15088302 320.51538086 154.70751953 C321.28562556 124.73986578 311.24028286 98.54242989 290.6015625 76.80859375 C285.97001678 72.38206615 280.83156963 68.71190241 275.5390625 65.12109375 C274.79398437 64.59644531 274.04890625 64.07179688 273.28125 63.53125 C257.68056296 53.28480573 236.19601563 47.52599547 217.5390625 49.12109375 C215.76208984 49.2603125 215.76208984 49.2603125 213.94921875 49.40234375 C182.06516593 52.38374034 158.83761395 69.42434731 138.5390625 93.12109375 C137.00423032 94.87709098 135.46223834 96.62684959 133.9140625 98.37109375 C133.19992187 99.180625 132.48578125 99.99015625 131.75 100.82421875 C126.01383974 106.7833393 120.27517407 109.81828243 111.94921875 110.2578125 C102.07806755 109.72546999 95.93948346 104.15130441 89.5390625 97.12109375 C87.81576843 95.19293255 86.11294572 93.24945416 84.421875 91.29296875 C80.8557997 87.17940471 77.21286519 83.1384895 73.5390625 79.12109375 C72.98734375 78.50234375 72.435625 77.88359375 71.8671875 77.24609375 C54.48961792 58.66413816 28.18770391 49.72934474 3.2890625 48.80859375 C-26.4253401 49.59980565 -51.76823279 61.95650019 -71.76171875 83.61328125 Z " fill="#FFFFFF" transform="translate(143.4609375,41.87890625)"/>
</svg>
