<?xml version="1.0" encoding="UTF-8"?>
<svg version="1.1" xmlns="http://www.w3.org/2000/svg" width="448" height="512">
<path d="M0 0 C19.96245805 17.17633081 25.99283678 44.42231119 28.03430176 69.54849243 C28.37095868 74.64288146 28.42470211 79.72801378 28.4609375 84.83203125 C28.48900277 87.09440832 28.51766721 89.35677802 28.546875 91.61914062 C28.58800724 95.12052217 28.62497562 98.62176555 28.65136719 102.12329102 C28.94491841 138.11621315 39.65183201 161.51964478 62.56640625 188.76171875 C79.13095478 208.50520417 93.23029763 229.50893028 104.25 252.8125 C105.06984375 254.52179688 105.06984375 254.52179688 105.90625 256.265625 C110.25545067 265.80723872 112.93880334 275.60721605 115.25 285.8125 C115.49878906 286.91078125 115.74757813 288.0090625 116.00390625 289.140625 C119.01495864 305.22764613 119.76482349 327.78285302 112.25 342.8125 C113.095625 342.9775 113.94125 343.1425 114.8125 343.3125 C121.88047777 346.39670848 125.38882435 352.48063479 128.33056641 359.34399414 C129.83774704 363.39048999 130.71127597 367.53772816 131.625 371.75 C134.30374882 383.13390105 139.03331285 390.44168159 146.41796875 399.421875 C151.84048038 406.49773239 154.23023881 413.96108983 153.25 422.8125 C151.2725996 430.39490583 145.41900876 434.50632828 139.25 438.8125 C135.09578804 441.17106573 130.82115764 443.21718374 126.5 445.25 C110.50231054 453.02865181 96.65315133 461.18018531 84.875 474.8125 C76.92764531 483.80739704 67.22623042 490.0954423 56.25 494.8125 C55.49976563 495.1528125 54.74953125 495.493125 53.9765625 495.84375 C44.39080232 499.47624859 30.18612246 499.79824689 20.5625 496.1875 C19.0993316 495.44434417 17.65953353 494.65295083 16.25 493.8125 C15.48816406 493.41160156 14.72632813 493.01070313 13.94140625 492.59765625 C5.07812896 487.44111213 0.0043076 479.10613876 -3.75 469.8125 C-4.56976318 469.73209473 -5.38952637 469.65168945 -6.23413086 469.56884766 C-9.35604685 469.26184575 -12.47780741 468.95331348 -15.5994873 468.6439209 C-16.99127099 468.50632919 -18.38311695 468.36936607 -19.77502441 468.23303223 C-26.87301198 467.53754142 -33.95854971 466.82654556 -41.02246094 465.83374023 C-57.14295138 463.6226458 -72.43625057 466.21425817 -88.29370117 469.08422852 C-94.54229217 470.20148848 -100.39924228 471.12443898 -106.75 470.8125 C-106.915 471.6375 -107.08 472.4625 -107.25 473.3125 C-110.75112526 481.48179227 -117.74835578 485.98244947 -125.59765625 489.625 C-144.48594406 496.74029058 -165.91912044 491.84462259 -183.77148438 483.91455078 C-186.75951131 482.50588793 -189.70542718 481.04813861 -192.63671875 479.5234375 C-205.04847247 473.887902 -218.9178888 472.63343397 -232.2878418 471.03076172 C-259.99687373 467.66421684 -259.99687373 467.66421684 -267.75 457.8125 C-272.34816326 449.28641423 -271.22494438 441.22866779 -268.75 432.25 C-266.20123635 422.96175939 -265.85952481 413.94147374 -267.25 404.37109375 C-268.60092959 394.75627459 -269.80115255 382.99245137 -263.75 374.8125 C-258.13110885 367.52615736 -250.44429584 364.72239818 -242.02148438 361.77709961 C-233.26390362 358.62656838 -227.9894231 353.6694166 -222.5625 346.25 C-221.73608156 345.14422884 -220.90926406 344.03875581 -220.08203125 342.93359375 C-218.92767578 341.38865234 -218.92767578 341.38865234 -217.75 339.8125 C-216.98945313 339.09964844 -216.22890625 338.38679688 -215.4453125 337.65234375 C-212.67063416 333.00443786 -213.5638237 328.219185 -213.8125 322.9375 C-214.39300555 296.27331728 -205.23888912 272.02700883 -192.75 248.8125 C-192.36585938 248.0896582 -191.98171875 247.36681641 -191.5859375 246.62207031 C-181.00926989 226.79081855 -168.29275297 208.26955089 -153.95141602 190.95800781 C-128.70427409 160.38946378 -126.07676859 126.62806931 -128.38696289 88.28955078 C-130.09073268 59.86828603 -128.42069516 28.58484303 -108.9296875 5.984375 C-82.17384983 -20.67556361 -29.5797331 -22.72242872 0 0 Z M-54.75 65.8125 C-59.41568657 73.56762767 -61.91201977 80.06870061 -61.8125 89.125 C-61.791875 91.001875 -61.77125 92.87875 -61.75 94.8125 C-57.79 95.8025 -53.83 96.7925 -49.75 97.8125 C-49.37875 94.780625 -49.37875 94.780625 -49 91.6875 C-48.17233361 86.29299355 -47.37822967 82.88051509 -43.75 78.8125 C-40.26195905 76.48713937 -38.84859246 76.47792102 -34.75 76.8125 C-31.34394634 78.09706881 -30.01900452 79.39632354 -28.5 82.6875 C-25.17138682 90.87088892 -25.98725965 99.15423352 -29.09375 107.265625 C-29.3103125 107.77609375 -29.526875 108.2865625 -29.75 108.8125 C-28.50579353 109.3470256 -27.25429064 109.86458611 -26 110.375 C-25.30390625 110.66503906 -24.6078125 110.95507812 -23.890625 111.25390625 C-21.36679958 111.91249573 -20.13929469 111.84719456 -17.75 110.8125 C-12.83842124 104.5205429 -11.21871625 95.13987618 -11.4375 87.33203125 C-12.76264672 76.64803585 -16.81100567 68.12831686 -24.75 60.9375 C-34.88381769 53.75937913 -47.01060694 56.51799525 -54.75 65.8125 Z M-109.3515625 66.22265625 C-115.52527312 72.654872 -116.8901583 79.98785724 -117.1875 88.6875 C-116.99856858 96.56250504 -115.75177418 105.21240489 -110 111.0625 C-108.88625 111.92875 -108.88625 111.92875 -107.75 112.8125 C-105.275 110.3375 -105.275 110.3375 -102.75 107.8125 C-103.224375 107.214375 -103.69875 106.61625 -104.1875 106 C-106.98842538 102.07870447 -106.91249622 98.69570901 -106.9375 94 C-106.95167969 92.79730469 -106.96585938 91.59460938 -106.98046875 90.35546875 C-106.75124672 86.83166575 -106.02030979 84.09120472 -104.75 80.8125 C-97.54356568 80.21196381 -97.54356568 80.21196381 -94.4375 82.5625 C-91.92453466 87.40228511 -90.86858297 92.49923087 -89.75 97.8125 C-86.78 96.8225 -83.81 95.8325 -80.75 94.8125 C-80.36906455 84.33677524 -82.28652781 75.03225235 -89.38671875 66.94921875 C-95.82925089 60.88310422 -102.46952811 60.1631089 -109.3515625 66.22265625 Z M-101.56640625 113.953125 C-105.26661366 117.10392773 -109.2553869 119.88026307 -113.2109375 122.69921875 C-115.63618459 124.71777056 -116.77444584 125.856095 -117.75 128.8125 C-117.51484131 135.16178472 -115.50332471 139.07163378 -111.0234375 143.53125 C-106.93816915 147.24217105 -102.61009641 150.29847589 -97.97265625 153.2734375 C-95.69759766 154.84878563 -93.72284995 156.56545602 -91.6875 158.4375 C-85.09030429 164.389461 -78.08571445 167.18856272 -69.22265625 167.015625 C-60.45681348 166.29552417 -53.40889873 162.12985035 -46 157.73046875 C-41.40564211 155.01913495 -36.67546241 152.71433165 -31.84765625 150.453125 C-23.43711321 146.41939113 -16.24450003 142.6806819 -12.34765625 133.82421875 C-11.33943199 130.43052271 -11.69636722 128.15933353 -12.75 124.8125 C-17.96400379 116.75449415 -26.74990553 114.32338491 -35.375 111 C-41.57555889 108.57722718 -47.59712002 106.0171922 -53.5 102.9375 C-72.94720147 92.92891683 -86.4803438 100.27844053 -101.56640625 113.953125 Z M-12.75 142.8125 C-13.41128906 143.53953125 -13.41128906 143.53953125 -14.0859375 144.28125 C-19.7417911 149.91543366 -25.62347063 152.78182658 -32.87036133 155.79956055 C-37.83738253 157.89026183 -42.2768781 160.20962376 -46.8125 163.125 C-57.09693722 169.68132873 -67.78107943 172.36378508 -79.9375 169.75 C-88.7817614 167.19345569 -94.99707119 161.85274983 -101.609375 155.64453125 C-105.69077891 152.06732093 -105.69077891 152.06732093 -110.75 150.8125 C-110.89695312 151.94042969 -111.04390625 153.06835938 -111.1953125 154.23046875 C-115.68309632 186.53486459 -128.80982776 216.00826426 -142.39550781 245.36865234 C-153.52352641 269.43442485 -162.0040916 293.07994702 -163.5390625 319.72265625 C-163.75 321.8125 -163.75 321.8125 -164.75 322.8125 C-165.88277268 320.62873234 -167.00622789 318.44092872 -168.125 316.25 C-168.44210938 315.64091797 -168.75921875 315.03183594 -169.0859375 314.40429688 C-177.46067695 297.91652859 -175.55026478 278.55759139 -170.21386719 261.38623047 C-167.61644006 253.74728228 -163.94615212 246.54662418 -160.32055664 239.35351562 C-159.84610107 238.40412109 -159.37164551 237.45472656 -158.8828125 236.4765625 C-158.44855957 235.62529785 -158.01430664 234.7740332 -157.56689453 233.89697266 C-157.16253174 232.86515869 -157.16253174 232.86515869 -156.75 231.8125 C-157.245 230.8225 -157.245 230.8225 -157.75 229.8125 C-172.45907427 254.49714325 -186.60335579 282.91253459 -179.78125 312.25390625 C-175.30199148 327.71074153 -165.60577398 337.07818124 -152.48242188 345.66943359 C-113.17115384 371.60733621 -113.17115384 371.60733621 -108.75 392.8125 C-108.39114488 398.37475435 -108.44888845 402.08090677 -111.75 406.8125 C-115.93467978 409.5705844 -119.8033038 410.31783038 -124.75 410.8125 C-123.88955078 412.08673828 -123.88955078 412.08673828 -123.01171875 413.38671875 C-121.52263261 415.60959525 -120.13918826 417.84015762 -118.76953125 420.14453125 C-110.40116941 433.68249288 -97.85806404 439.26119242 -82.80078125 443.15625 C-57.46608928 448.60596607 -33.42660269 443.06232291 -10.8125 431.3125 C-10.102146 430.94487549 -9.39179199 430.57725098 -8.65991211 430.19848633 C0.06778965 425.5423602 0.06778965 425.5423602 5.04296875 417.3046875 C5.53919601 415.44036339 6.00179475 413.56689001 6.4375 411.6875 C6.68741699 410.66140625 6.93733398 409.6353125 7.19482422 408.578125 C9.63862254 397.65855002 10.48069165 386.59617288 11.13745117 375.44873047 C12.0713833 360.51432803 14.03915631 342.91171835 25.75 332.3125 C28.05209935 330.4993421 29.69944797 329.6396354 32.5 328.5625 C36.33201203 326.12394689 36.47744447 323.52309939 37.546875 319.2578125 C38.47351029 316.03518089 39.81628312 314.10305706 42.25 311.8125 C50.39835314 307.86476339 59.30485093 309.21641369 67.6875 311.8125 C77.94669892 315.42964443 90.86020523 320.83208693 96.25 330.8125 C97.0165303 333.84549953 97.30061059 336.68910384 97.25 339.8125 C98.24 339.8125 99.23 339.8125 100.25 339.8125 C102.03139589 336.24970822 101.21887554 332.5736628 100.25 328.8125 C98.61842319 325.7745809 96.59500217 323.32921858 94.25 320.8125 C93.77949219 320.30074219 93.30898438 319.78898438 92.82421875 319.26171875 C88.89753358 315.49737716 84.25129148 313.00558237 79.5 310.4375 C78.83750244 310.07914063 78.17500488 309.72078125 77.49243164 309.3515625 C74.55767294 307.81849636 72.60813926 306.8125 69.25 306.8125 C69.57226562 305.68714844 69.89453125 304.56179688 70.2265625 303.40234375 C75.72437643 281.25053239 67.60559202 258.70826628 56.875 239.5625 C50.99354127 229.8653298 43.94761773 221.11837636 36.25 212.8125 C35.26 213.3075 35.26 213.3075 34.25 213.8125 C34.79527344 214.37195313 35.34054687 214.93140625 35.90234375 215.5078125 C53.38716025 234.09850628 64.56203663 258.01747175 64.25 283.8125 C63.8217308 288.20691439 63.11081344 292.48484886 62.25 296.8125 C61.92 298.7925 61.59 300.7725 61.25 302.8125 C57.29 302.1525 53.33 301.4925 49.25 300.8125 C48.92128906 299.28496094 48.92128906 299.28496094 48.5859375 297.7265625 C43.96491209 276.84960805 36.40678944 257.87857521 26.71044922 238.86157227 C12.25983452 210.48056499 -0.50755012 180.37152775 -8.95092773 149.63598633 C-9.49779057 147.67928493 -10.11652069 145.74289978 -10.75 143.8125 C-11.74 143.3175 -11.74 143.3175 -12.75 142.8125 Z M-154.75 223.8125 C-153.75 225.8125 -153.75 225.8125 -153.75 225.8125 Z M-155.75 225.8125 C-154.75 227.8125 -154.75 227.8125 -154.75 227.8125 Z M-156.75 227.8125 C-155.75 229.8125 -155.75 229.8125 -155.75 229.8125 Z M-213.75 346.8125 C-218.78439242 353.07531794 -218.78439242 353.07531794 -222.73046875 360.01953125 C-224.06350286 362.36383262 -225.2756833 362.80068121 -227.75 363.8125 C-228.53375 364.17988281 -229.3175 364.54726563 -230.125 364.92578125 C-230.99125 365.32152344 -231.8575 365.71726562 -232.75 366.125 C-233.71421875 366.56585938 -234.6784375 367.00671875 -235.671875 367.4609375 C-238.75165674 368.81322745 -241.86607175 370.0295003 -245 371.25 C-251.67875526 374.04797399 -256.90162239 376.95027756 -259.75 383.875 C-261.69788914 390.89452733 -260.30075181 398.19793625 -259.22265625 405.2734375 C-257.77048035 416.14675456 -258.79955973 424.91010552 -261.84375 435.29296875 C-263.48148701 441.65331809 -263.90050803 447.17591911 -261.25 453.25 C-252.45108291 462.26889002 -238.10003943 462.42585737 -226.22705078 463.88354492 C-210.23393636 465.85219055 -196.28175106 469.2286591 -181.60791016 475.96630859 C-165.66728232 483.22652096 -147.55340826 488.12713349 -130.28515625 482.78515625 C-122.6447001 479.85376398 -116.48316655 475.1653809 -112.71484375 467.78515625 C-109.72738082 460.1011237 -109.44345996 451.58349752 -112.25 443.8125 C-117.61779928 432.04463235 -126.31624635 421.90373593 -134.31933594 411.83886719 C-142.2076563 401.91394299 -148.81299403 391.99524517 -154.75 380.8125 C-157.07023848 376.47550622 -159.40471002 372.14679485 -161.75595093 367.82653809 C-162.78607127 365.92381617 -163.80116603 364.01361839 -164.81567383 362.10253906 C-170.62483435 351.30802897 -177.13350454 341.7759117 -188.75 336.8125 C-199.65148539 333.74026321 -206.85573096 338.64705337 -213.75 346.8125 Z M28.25 339.8125 C22.13289466 348.78186267 19.88440525 358.35919917 18.6875 369 C18.49220703 370.58953491 18.49220703 370.58953491 18.29296875 372.21118164 C17.71154323 377.08316414 17.20277515 381.92467102 17.00390625 386.828125 C16.28715047 402.01970312 12.24947968 416.16622162 8.1484375 430.73608398 C7.90267471 431.61051147 7.65691193 432.48493896 7.40370178 433.38586426 C6.9374474 435.03546402 6.46627532 436.683685 5.98924255 438.3302002 C2.73701479 449.74391294 1.3229862 461.68041244 6.25 472.8125 C7.98400585 475.76030994 9.95450073 478.28254356 12.25 480.8125 C12.74113281 481.369375 13.23226563 481.92625 13.73828125 482.5 C19.52486218 488.24350464 28.26275172 490.86266902 36.3125 491.25 C56.54238596 489.00223489 71.42791234 478.46115896 84.1875 463.1875 C95.92919749 449.73045164 113.68787936 442.51778172 129.37109375 434.77734375 C135.85650618 431.48590322 141.52537625 428.27886068 145.25 421.8125 C146.72569466 415.90972134 143.93255811 411.14968369 141.23046875 405.9765625 C139.14748977 402.64872627 136.81412861 399.9132413 134.1875 397 C127.69959441 389.52966793 125.59065595 381.17576065 123.2421875 371.8046875 C120.35033197 359.26202939 120.35033197 359.26202939 111.6875 350.375 C105.72533793 347.66492633 99.75401789 346.48619047 93.25 347.8125 C90.28277306 349.78208787 87.78982483 352.01519937 85.16015625 354.4140625 C75.91061984 362.03717036 64.99694589 364.89303379 53.25 363.8125 C47.62821664 362.10017699 43.275132 357.72615372 40.25 352.8125 C37.95205208 347.29449767 36.33648689 341.68598359 35.25 335.8125 C31.91753072 335.8125 30.62569398 337.54730342 28.25 339.8125 Z " fill="#FFFFFF" transform="translate(282.75,14.1875)"/>
<path d="M0 0 C1.32 0 2.64 0 4 0 C3.34439978 5.50134093 0.95732895 7.4265551 -3.14453125 10.8828125 C-17.08933942 21.22219147 -35.21125259 30.86432287 -53 29 C-65.28514908 26.72145612 -77.05980062 19.61027822 -85 10 C-85.8046875 6.6875 -85.8046875 6.6875 -86 4 C-84.68 4 -83.36 4 -82 4 C-80.87738094 5.63290045 -79.76017891 7.26981264 -78.671875 8.92578125 C-73.03182898 15.92312807 -62.87653619 22.26013447 -54 24 C-35.4202318 25.57411925 -19.71844303 16.52685822 -5.171875 5.859375 C-2.92717072 4.09722572 -2.92717072 4.09722572 -1.453125 1.765625 C-0.97359375 1.18296875 -0.4940625 0.6003125 0 0 Z " fill="#FFFFFF" transform="translate(256,138)"/>
<path d="M0 0 C0.875 2.125 0.875 2.125 1 4 C-2.94727588 4.17942163 -5.5980513 4.09350689 -9 2 C-9 1.01 -9 0.02 -9 -1 C-5.1851221 -2.27162597 -3.6068725 -1.64661571 0 0 Z " fill="#FFFFFF" transform="translate(226,121)"/>
<path d="M0 0 C2.05078125 0.03255208 4.1015625 0.06510417 6.15234375 0.09765625 C6.15234375 1.08765625 6.15234375 2.07765625 6.15234375 3.09765625 C2.64457591 4.70120726 0.00879496 5.31802489 -3.84765625 5.09765625 C-2.72914438 0.14424653 -2.72914438 0.14424653 0 0 Z " fill="#FFFFFF" transform="translate(199.84765625,119.90234375)"/>
</svg>
