<?xml version="1.0" encoding="UTF-8"?>
<svg version="1.1" xmlns="http://www.w3.org/2000/svg" width="512" height="512">
<path d="M0 0 C1.01790619 0.00215515 2.03581238 0.0043103 3.08456421 0.00653076 C17.69363523 0.05620146 32.02575853 0.30709809 46.375 3.3125 C47.34985352 3.51117676 48.32470703 3.70985352 49.32910156 3.91455078 C97.7109774 14.03517194 141.69928269 35.9516877 177.375 70.3125 C178.3640332 71.26068604 178.3640332 71.26068604 179.37304688 72.22802734 C188.86130305 81.37247479 197.6012044 90.66984009 205.375 101.3125 C206.23306152 102.46355017 207.09113451 103.61459177 207.94921875 104.765625 C213.98736829 112.95680614 219.34595521 121.47054105 224.375 130.3125 C224.73948242 130.94430176 225.10396484 131.57610352 225.47949219 132.22705078 C245.68237714 167.52414766 256.6680541 208.83772938 256.7109375 249.46875 C256.71739872 250.95072545 256.72412923 252.43269975 256.73110962 253.91467285 C256.74294372 256.99018303 256.74680457 260.06558203 256.74560547 263.14111328 C256.74544255 266.25560633 256.75941421 269.3695135 256.78662109 272.48388672 C257.07340543 305.83409565 257.07340543 305.83409565 252.375 319.3125 C252.09253418 320.16215332 251.81006836 321.01180664 251.51904297 321.88720703 C242.84756203 345.79718342 224.48874382 364.64398239 202.03125 376.00390625 C178.82221522 386.62363662 151.42763728 388.31880488 127.31591797 379.56494141 C114.5006409 374.71342239 103.63201988 367.80133765 93.62890625 358.390625 C91.29720073 356.24076826 88.87133258 354.26730012 86.375 352.3125 C85.95992188 352.71339844 85.54484375 353.11429687 85.1171875 353.52734375 C62.27201097 374.6041698 31.57506727 384.78562247 0.875 384.6875 C0.17257172 384.6862915 -0.52985657 384.68508301 -1.25357056 384.68383789 C-37.38565493 384.51576977 -68.43983865 370.13604986 -93.80615234 344.61914062 C-109.07529046 328.73183376 -118.66206821 309.36895176 -124.625 288.3125 C-124.96660156 287.13429688 -125.30820313 285.95609375 -125.66015625 284.7421875 C-133.19400248 252.85474532 -126.81213706 216.83699536 -109.984375 189.0078125 C-91.69587643 159.91795193 -64.44926745 140.60793449 -31.625 131.3125 C-30.44679687 130.97089844 -29.26859375 130.62929687 -28.0546875 130.27734375 C4.39583345 122.61046243 39.80213635 129.46922972 68.0546875 146.39453125 C72.06120876 148.72200541 72.06120876 148.72200541 76.375 150.3125 C79.39736957 148.57575246 79.39736957 148.57575246 82.375 146.3125 C90.62249434 142.90877218 101.5278332 142.83716201 109.9375 145.9375 C118.43447807 150.01490894 123.69926388 156.14803783 127.42224121 164.72517395 C128.76509651 169.78129085 128.66683234 174.62434166 128.66210938 179.8347168 C128.66894241 180.9883522 128.67577545 182.14198761 128.68281555 183.33058167 C128.69638712 185.83175908 128.70545094 188.33296412 128.71052551 190.8341732 C128.71882793 194.79893512 128.73906761 198.76353711 128.76306152 202.72822571 C128.81194005 211.15211095 128.84428217 219.57603194 128.875 228 C128.90815686 237.07925366 128.9443142 246.15844123 128.99913073 255.23759395 C129.0260293 259.79981995 129.03795286 264.36194958 129.04724121 268.92424011 C129.06022338 271.33060005 129.07374511 273.73695716 129.08789062 276.14331055 C129.08690872 277.21642487 129.08592682 278.28953918 129.08491516 279.39517212 C129.17554805 290.52713006 130.29011639 300.37802288 137.375 309.3125 C144.06265492 315.86198023 150.99568109 318.4395196 160.25 318.75 C169.06678228 318.53311659 176.35813788 316.181002 182.84375 310.0625 C192.10799122 299.47479575 191.7010493 286.16019901 191.5625 272.8125 C191.55293298 271.37630292 191.54349408 269.94010499 191.53417969 268.50390625 C191.50185512 264.43965371 191.4420616 260.37632732 191.375 256.3125 C191.36098145 255.34054688 191.34696289 254.36859375 191.33251953 253.3671875 C190.35254018 201.15550392 168.06838704 152.81951608 130.84765625 116.6015625 C94.76573382 83.19870856 45.4939898 63.87845181 -3.765625 65.41015625 C-18.30866513 66.08859951 -32.48828977 67.81961314 -46.625 71.3125 C-47.33881836 71.48620117 -48.05263672 71.65990234 -48.78808594 71.83886719 C-97.21846085 83.96326924 -138.55913781 116.89374807 -164.078125 159.33203125 C-175.66823129 179.14282916 -183.5995401 200.71210028 -187.625 223.3125 C-187.89207764 224.80547607 -187.89207764 224.80547607 -188.16455078 226.32861328 C-189.74911474 236.13761643 -190.02444048 245.77811833 -190 255.6875 C-189.99945618 256.52054657 -189.99891235 257.35359314 -189.99835205 258.21188354 C-189.95642748 272.23297084 -188.9185789 285.63846899 -185.625 299.3125 C-185.41601074 300.20098633 -185.20702148 301.08947266 -184.99169922 302.00488281 C-173.12396752 350.98705633 -141.51885913 393.33612458 -98.61035156 419.54296875 C-71.96399063 435.39663887 -42.70840016 444.7609003 -11.734375 446.7890625 C-10.5366748 446.86793701 -9.33897461 446.94681152 -8.10498047 447.02807617 C-5.76654334 447.17203116 -3.42692256 447.2982739 -1.08642578 447.40356445 C9.20881151 447.98794669 18.28924602 450.43140628 25.375 458.3125 C32.29223455 467.51095019 33.51806523 477.09617245 32.375 488.3125 C30.42261912 496.88744559 25.67710128 503.33125412 18.375 508.125 C10.58220588 512.88185141 2.78890294 512.67421979 -6.0625 512.625 C-6.75273254 512.62284485 -7.44296509 512.6206897 -8.15411377 512.61846924 C-65.43315022 512.33236347 -122.37651967 489.61949581 -165.625 452.3125 C-166.37007813 451.67828125 -167.11515625 451.0440625 -167.8828125 450.390625 C-181.38779833 438.57948485 -194.05918743 425.82889772 -204.625 411.3125 C-205.48149066 410.16255169 -206.33826433 409.01281411 -207.1953125 407.86328125 C-213.23534209 399.67315742 -218.61867614 391.16870382 -223.625 382.3125 C-224.0271875 381.60528809 -224.429375 380.89807617 -224.84375 380.16943359 C-237.8691741 357.03404164 -246.61801461 331.86287591 -251.9375 305.875 C-252.08485596 305.15610596 -252.23221191 304.43721191 -252.3840332 303.6965332 C-255.35789088 288.05024391 -255.99800362 272.57681954 -255.9375 256.6875 C-255.93534485 255.66959381 -255.9331897 254.65168762 -255.93096924 253.60293579 C-255.88129854 238.99386477 -255.63040191 224.66174147 -252.625 210.3125 C-252.42632324 209.33764648 -252.22764648 208.36279297 -252.02294922 207.35839844 C-241.90232806 158.9765226 -219.9858123 114.98821731 -185.625 79.3125 C-184.99287598 78.65314453 -184.36075195 77.99378906 -183.70947266 77.31445312 C-174.56502521 67.82619695 -165.26765991 59.0862956 -154.625 51.3125 C-153.47394983 50.45443848 -152.32290823 49.59636549 -151.171875 48.73828125 C-142.98224019 42.70072604 -134.47961724 37.31792698 -125.625 32.3125 C-124.91778809 31.9103125 -124.21057617 31.508125 -123.48193359 31.09375 C-100.34654164 18.0683259 -75.17537591 9.31948539 -49.1875 4 C-48.46860596 3.85264404 -47.74971191 3.70528809 -47.0090332 3.5534668 C-31.36274391 0.57960912 -15.88931954 -0.06050362 0 0 Z M-41.625 208.3125 C-42.34171875 208.91707031 -43.0584375 209.52164063 -43.796875 210.14453125 C-54.00354791 219.54020883 -61.76212941 233.70599789 -62.80200195 247.69335938 C-63.08926141 259.23867192 -63.29284883 269.55349106 -58.625 280.3125 C-58.26277344 281.18777344 -57.90054688 282.06304687 -57.52734375 282.96484375 C-50.49185408 298.44292103 -37.14341767 310.15098774 -21.5625 316.5625 C-4.53831734 322.27724679 13.48883569 321.11749822 29.61572266 313.25146484 C45.08389464 304.99576273 55.89531937 291.18905607 61.61328125 274.85546875 C65.63101008 261.44243559 64.93373161 245.12492073 59.375 232.3125 C58.83166016 230.99958984 58.83166016 230.99958984 58.27734375 229.66015625 C51.70183311 215.19403285 39.60109878 204.07375804 25.375 197.3125 C1.86444293 188.5458516 -22.42008021 192.05026953 -41.625 208.3125 Z " fill="#FFFFFF" transform="translate(255.625,-0.3125)"/>
</svg>
