<?xml version="1.0" encoding="UTF-8"?>
<svg version="1.1" xmlns="http://www.w3.org/2000/svg" width="448" height="512">
<path d="M0 0 C30.98966874 30.41981525 38.50475651 69.58229118 38.96193916 111.66623145 C39.04300369 121.23336721 39.04472045 130.80096383 39.04616332 140.36838031 C39.04688152 143.05170629 39.04903016 145.73502738 39.05166054 148.41835213 C39.0608722 157.83285971 39.06500087 167.24735329 39.06420898 176.66186523 C39.06360993 185.35099615 39.0741387 194.04006464 39.08995265 202.7291798 C39.10315632 210.26030206 39.10838755 217.79140425 39.10775357 225.32253796 C39.10750224 229.78888951 39.11014617 234.25518548 39.12093163 238.72152519 C39.23407516 289.21796201 37.76795572 338.50547207 1.12890625 377.03125 C-23.99837951 401.16771219 -56.06745494 409.9329529 -90.10864258 411.9387207 C-90.81573164 411.98131724 -91.52282069 412.02391378 -92.25133669 412.06780112 C-108.77955956 413.04267298 -125.28779566 413.12329215 -141.83967948 413.07946944 C-145.9985709 413.0704389 -150.15746124 413.07245099 -154.31636047 413.0728302 C-161.27692596 413.0719051 -168.2374468 413.06337547 -175.19799805 413.04956055 C-183.17747918 413.03377911 -191.15691194 413.02856554 -199.13640755 413.0292961 C-207.75032684 413.02997744 -216.36422823 413.02301359 -224.97814202 413.0138495 C-227.41326675 413.01174643 -229.84838848 413.0110123 -232.28351402 413.01061058 C-278.47697255 412.99585103 -278.47697255 412.99585103 -295.93359375 410.53125 C-297.35575195 410.33559448 -297.35575195 410.33559448 -298.80664062 410.13598633 C-332.38660786 405.29881809 -363.17703205 390.24744913 -383.89013672 362.56591797 C-400.17245165 339.78617788 -406.52783073 313.49693874 -408.24121094 285.84008789 C-408.28266723 285.18472427 -408.32412353 284.52936066 -408.36683607 283.85413754 C-409.39238748 267.30343468 -409.41598621 250.75441624 -409.38974476 234.17790103 C-409.38455035 229.84256198 -409.38941224 225.50722979 -409.39251709 221.17189026 C-409.39611839 213.90339606 -409.39145981 206.63494298 -409.38183594 199.36645508 C-409.3709548 191.05428282 -409.37449027 182.74220877 -409.38548875 174.43003887 C-409.39466787 167.19332766 -409.39579601 159.9566454 -409.39061141 152.71993023 C-409.38754967 148.4414946 -409.38691677 144.16310456 -409.39368439 139.88467216 C-409.41571044 123.68009157 -409.29029089 107.52710252 -408.24121094 91.35180664 C-408.16533878 90.17367873 -408.08946663 88.99555082 -408.01129532 87.78172207 C-405.37396598 51.78662749 -392.66400463 18.91872762 -365.12109375 -5.15625 C-340.47927951 -25.63975809 -309.37967691 -33.21344654 -277.94921875 -34.68359375 C-277.08766174 -34.72491928 -276.22610474 -34.76624481 -275.33843994 -34.80882263 C-265.18656271 -35.27414081 -255.03122973 -35.52036092 -244.87109375 -35.71875 C-243.30004883 -35.75001984 -243.30004883 -35.75001984 -241.69726562 -35.78192139 C-41.27079399 -39.65033732 -41.27079399 -39.65033732 0 0 Z M-282.43359375 7.15625 C-283.62525146 7.28596191 -284.81690918 7.41567383 -286.04467773 7.54931641 C-310.30723185 10.35600893 -331.90188379 17.60199176 -348.12109375 36.84375 C-371.02626456 66.57368937 -368.44559548 108.43834538 -368.42267632 144.06058741 C-368.42158646 147.43151756 -368.42654034 150.80242975 -368.43128175 154.17335594 C-368.44227926 162.15041577 -368.44287059 170.12742849 -368.43676758 178.10449219 C-368.43074132 186.23478165 -368.44302734 194.36489747 -368.46433765 202.49515736 C-368.48216296 209.56531282 -368.48792252 216.63541408 -368.4846999 223.70559108 C-368.48291921 227.88860564 -368.48518927 232.07149647 -368.49941444 236.2544899 C-369.42557468 296.15546204 -369.42557468 296.15546204 -341.88671875 347.171875 C-312.90323282 375.01875364 -267.30913789 372.16929095 -230.00565028 372.14533257 C-226.63228497 372.14424356 -223.25893766 372.14919462 -219.88557631 372.153938 C-211.90230014 372.16494103 -203.91907105 372.16552391 -195.93579102 372.15942383 C-187.79813796 372.15339971 -179.66065848 372.16567681 -171.52303499 372.1869939 C-164.44865345 372.20481967 -157.37432608 372.21057862 -150.299923 372.20735615 C-146.11354013 372.20557523 -141.92728088 372.20784789 -137.74091911 372.22207069 C-77.27027403 373.1364124 -77.27027403 373.1364124 -26.12109375 344.84375 C5.94800623 312.83943608 -1.02904072 253.17454633 -0.98487473 211.77565193 C-0.98212319 206.33805764 -0.9850541 200.90048212 -0.99072266 195.46289062 C-0.99641939 189.95048672 -0.99302568 184.43813107 -0.98729038 178.9257288 C-0.95990061 149.80093404 -0.95990061 149.80093404 -1.546875 120.68359375 C-1.58299896 119.47860229 -1.61912292 118.27361084 -1.65634155 117.03210449 C-2.82084866 84.27005645 -5.69679668 51.26159453 -30.91796875 27.60546875 C-46.76148648 13.50241089 -67.06455317 9.28340435 -87.55859375 7.21875 C-88.61884766 7.09757812 -89.67910156 6.97640625 -90.77148438 6.8515625 C-119.9216087 3.8332041 -149.5565195 4.68402004 -178.81811523 4.71337891 C-184.5380406 4.71907908 -190.25791949 4.71568138 -195.97784328 4.70994663 C-239.27122106 4.31621794 -239.27122106 4.31621794 -282.43359375 7.15625 Z " fill="#FFFFFF" transform="translate(409.12109375,67.15625)"/>
<path d="M0 0 C16.63914476 14.36383845 27.86390761 31.84490191 34.94970703 52.609375 C35.30790527 53.65303223 35.30790527 53.65303223 35.67333984 54.71777344 C39.21653713 65.71655516 39.937489 76.67479252 39.88720703 88.171875 C39.88538422 88.833013 39.8835614 89.494151 39.88168335 90.17532349 C39.83630747 99.95035276 39.40537907 108.95423888 36.57470703 118.359375 C36.23439453 119.5659375 35.89408203 120.7725 35.54345703 122.015625 C26.54512406 151.44260581 6.52709379 175.61650058 -20.40673828 190.45068359 C-47.98820428 205.10541432 -80.76277773 207.76794063 -110.61474609 198.69384766 C-141.1469542 188.84407367 -164.93084965 167.63488858 -179.42529297 139.359375 C-187.16123684 123.02106155 -190.82335902 106.64893162 -190.73779297 88.609375 C-190.73287842 87.37872314 -190.72796387 86.14807129 -190.72290039 84.88012695 C-190.60453199 75.66985124 -189.86686621 67.25225965 -187.42529297 58.359375 C-187.10818359 57.163125 -186.79107422 55.966875 -186.46435547 54.734375 C-181.52104667 38.18656116 -172.86247739 23.23673508 -161.42529297 10.359375 C-160.63638672 9.46992188 -159.84748047 8.58046875 -159.03466797 7.6640625 C-144.35531698 -7.84160957 -125.8370331 -17.88346753 -105.42529297 -23.640625 C-104.36310547 -23.9603125 -103.30091797 -24.28 -102.20654297 -24.609375 C-66.57084097 -33.60156148 -27.80210377 -23.28972043 0 0 Z M-125.42529297 33.359375 C-126.13298828 33.98585938 -126.84068359 34.61234375 -127.56982422 35.2578125 C-132.957646 40.30567611 -136.75190537 45.9849671 -140.42529297 52.359375 C-141.12138672 53.51179688 -141.12138672 53.51179688 -141.83154297 54.6875 C-150.58582009 70.38114313 -151.97720535 90.25562206 -147.40283203 107.44799805 C-141.48477924 127.19371412 -128.99926282 143.45136377 -110.96777344 153.60620117 C-93.30194715 163.00805432 -72.92599802 165.25632546 -53.65966797 159.8046875 C-34.05074766 153.514175 -18.36867689 139.83005788 -8.67529297 121.734375 C-0.25771524 104.40933253 1.65203529 84.33794261 -4.09716797 65.85546875 C-7.7991791 56.11046887 -12.41531783 47.16561507 -19.42529297 39.359375 C-20.15361328 38.53824219 -20.88193359 37.71710938 -21.63232422 36.87109375 C-33.96238866 23.74425616 -51.41890857 14.81771857 -69.58935547 14.0234375 C-90.98957121 13.66767447 -109.22344231 18.7126758 -125.42529297 33.359375 Z " fill="#FFFFFF" transform="translate(299.42529296875,167.640625)"/>
<path d="M0 0 C5.8376728 3.85506694 9.5167443 9.29676515 11.6171875 15.95703125 C13.15650596 24.17196547 12.19535676 31.74784937 8 39 C3.52745955 44.91054712 -2.14671537 48.93196325 -9.4140625 50.53125 C-18.36326514 51.75033643 -25.56590381 50.11752803 -32.921875 44.83203125 C-38.47264488 39.93858938 -42.36897979 33.43798294 -43 26 C-43.09392401 16.8491177 -41.0011991 10.06973108 -34.875 3.25 C-24.85308268 -6.06825078 -11.67161097 -6.2467777 0 0 Z " fill="#FFFFFF" transform="translate(359,113)"/>
</svg>
