<?xml version="1.0" encoding="UTF-8"?>
<svg version="1.1" xmlns="http://www.w3.org/2000/svg" width="448" height="512">
<path d="M0 0 C1.41657322 -0.00374025 2.83314438 -0.00834326 4.24971229 -0.01373065 C8.12870475 -0.02592993 12.00761076 -0.02570381 15.88661802 -0.02334189 C20.07559935 -0.02293294 24.26455325 -0.03398037 28.45352173 -0.04345703 C36.65575033 -0.06005148 44.85795017 -0.06556589 53.06019416 -0.06668179 C59.72990016 -0.06763306 66.39959669 -0.07174733 73.0692997 -0.07808304 C91.99229547 -0.09569172 110.91526857 -0.10492257 129.83827259 -0.10342209 C131.36765437 -0.10330222 131.36765437 -0.10330222 132.92793274 -0.10317993 C133.94877017 -0.10309817 134.96960761 -0.10301641 136.02137951 -0.10293217 C152.55996892 -0.10211953 169.09846721 -0.12125275 185.63703027 -0.14945666 C202.63160929 -0.17820879 219.62614391 -0.19199566 236.62074786 -0.19026911 C246.15670643 -0.18960598 255.69256947 -0.19506436 265.22850609 -0.21662521 C273.34866913 -0.23486773 281.46869335 -0.23915922 289.58886804 -0.22560637 C293.72825102 -0.219092 297.86736792 -0.21890376 302.00672531 -0.23631287 C305.80369956 -0.25211707 309.60019841 -0.24910592 313.39716158 -0.2317446 C315.40530892 -0.22725537 317.41347145 -0.24227418 319.42156047 -0.25822389 C337.15451333 -0.12445145 352.86422256 6.95123692 365.40571594 19.37680054 C377.81158416 32.85747966 382.37570553 48.31510101 382.33329773 66.20155334 C382.33703798 67.61812656 382.34164099 69.03469772 382.34702837 70.45126563 C382.35922766 74.33025809 382.35900154 78.20916411 382.35663962 82.08817136 C382.35623067 86.27715269 382.36727809 90.4661066 382.37675476 94.65507507 C382.39334921 102.85730367 382.39886362 111.05950352 382.39997952 119.2617475 C382.40093079 125.9314535 382.40504506 132.60115004 382.41138077 139.27085304 C382.42898945 158.19384881 382.4382203 177.11682192 382.43671982 196.03982594 C382.43663991 197.05941379 382.43656 198.07900163 382.43647766 199.12948608 C382.4363959 200.15032352 382.43631414 201.17116095 382.4362299 202.22293285 C382.43541725 218.76152227 382.45455048 235.30002055 382.48275439 251.83858361 C382.51150652 268.83316264 382.52529339 285.82769725 382.52356684 302.82230121 C382.52290371 312.35825977 382.52836209 321.89412282 382.54992294 331.43005943 C382.56816546 339.55022247 382.57245695 347.67024669 382.5589041 355.79042139 C382.55238973 359.92980436 382.55220149 364.06892126 382.5696106 368.20827866 C382.5854148 372.00525291 382.58240365 375.80175175 382.56504233 379.59871493 C382.5605531 381.60686227 382.57557191 383.61502479 382.59152162 385.62311381 C382.45774918 403.35606668 375.38206081 419.0657759 362.95649719 431.60726929 C349.1709249 444.29372163 333.35610321 448.58140323 315.08068848 448.52812195 C313.67078951 448.53114634 312.26089219 448.53503726 310.85099775 448.53971452 C306.99513248 448.54996632 303.13936049 448.54781991 299.28348768 448.54353392 C295.11772313 448.54106155 290.95198074 448.55008723 286.78622437 448.55757141 C278.63192315 448.57030649 270.47765488 448.57211357 262.32334539 448.56977115 C255.69322418 448.5679864 249.06311295 448.56974099 242.43299294 448.57399559 C241.01625875 448.57488837 241.01625875 448.57488837 239.57090366 448.57579919 C237.65201224 448.57701098 235.73312082 448.57822511 233.81422941 448.57944157 C215.82732359 448.59031264 197.84043654 448.58815674 179.85352967 448.58205672 C163.41134166 448.57688865 146.96921292 448.58814089 130.52703663 448.60715494 C113.63074274 448.62654384 96.73447687 448.63478745 79.83817178 448.63103169 C70.35761172 448.62912116 60.8771021 448.63159278 51.39655113 448.64574623 C43.32507443 448.65767444 35.2536792 448.65904882 27.18220135 448.64695606 C23.06728276 448.64107733 18.95251309 448.63993999 14.83760452 448.65195847 C11.06422829 448.66285096 7.29112469 448.65967427 3.51776103 448.64569678 C1.51986657 448.64181792 -0.47804015 448.65256941 -2.47590572 448.66399366 C-20.76995046 448.5550073 -36.42784754 442.05929439 -49.34428406 429.12289429 C-61.65191064 415.55294703 -66.24402136 400.24514533 -66.20155334 382.33329773 C-66.20529359 380.91672451 -66.20989661 379.50015335 -66.21528399 378.08358544 C-66.22748328 374.20459298 -66.22725716 370.32568696 -66.22489524 366.44667971 C-66.22448629 362.25769838 -66.23553371 358.06874448 -66.24501038 353.879776 C-66.26160483 345.6775474 -66.26711923 337.47534756 -66.26823513 329.27310357 C-66.26918641 322.60339757 -66.27330068 315.93370104 -66.27963638 309.26399803 C-66.29724507 290.34100226 -66.30647591 271.41802916 -66.30497544 252.49502514 C-66.30489552 251.47543729 -66.30481561 250.45584944 -66.30473328 249.40536499 C-66.30461063 247.87410884 -66.30461063 247.87410884 -66.30448551 246.31191822 C-66.30367287 229.77332881 -66.32280609 213.23483052 -66.35101001 196.69626746 C-66.37976214 179.70168844 -66.393549 162.70715382 -66.39182246 145.71254987 C-66.39115933 136.1765913 -66.39661771 126.64072825 -66.41817856 117.10479164 C-66.43642108 108.9846286 -66.44071256 100.86460438 -66.42715971 92.74442969 C-66.42064534 88.60504671 -66.4204571 84.46592981 -66.43786621 80.32657242 C-66.45367042 76.52959817 -66.45065926 72.73309932 -66.43329795 68.93613615 C-66.42880871 66.92798881 -66.44382752 64.91982628 -66.45977724 62.91173726 C-66.3260048 45.1787844 -59.25031642 29.46907517 -46.82475281 16.92758179 C-33.34407368 4.52171357 -17.88645233 -0.04240781 0 0 Z M37.06587219 87.26742554 C31.52279004 93.49600613 30.08338631 99.61770791 30.49555969 107.86117554 C31.59560601 114.43131516 34.24982517 119.00626463 39.44477844 123.17758179 C46.26504702 127.58212165 52.55442384 128.28559482 60.51997375 128.50619507 C114.78796593 130.15897176 163.87126437 153.54553721 201.37055969 192.26742554 C233.85174321 226.796667 252.10486283 273.62317602 253.58345032 320.75765991 C253.94786737 329.68931548 254.927781 338.36207294 261.06587219 345.26742554 C267.19524881 350.63063008 272.94398271 352.1325623 281.01118469 351.72445679 C287.84081581 350.70263218 292.69069715 347.6148617 297.06587219 342.26742554 C301.41206059 335.3215726 301.69469134 329.54476822 301.56587219 321.45492554 C301.55378723 320.2280603 301.54170227 319.00119507 301.5292511 317.7371521 C300.25810376 257.50788024 273.74040889 199.1992707 232.06587219 156.26742554 C231.51963196 155.69540405 230.97339172 155.12338257 230.41059875 154.5340271 C222.72080601 146.49330257 214.76097071 139.23072195 205.83247375 132.58969116 C204.06766161 131.26876488 202.32780734 129.91960717 200.58930969 128.56430054 C161.65241643 98.61284418 112.95199609 83.10911594 64.25337219 80.45492554 C62.9201593 80.37516479 62.9201593 80.37516479 61.56001282 80.29379272 C52.56801761 79.91543356 43.99400719 81.12360771 37.06587219 87.26742554 Z M37.06587219 183.26742554 C31.52279004 189.49600613 30.08338631 195.61770791 30.49555969 203.86117554 C31.55996633 210.21845355 34.1298361 214.85423092 39.13056946 218.96444702 C46.17056667 223.48671129 52.38394657 224.31591015 60.62837219 224.82992554 C90.20700939 227.38080384 115.48766165 239.50151121 135.06587219 262.26742554 C142.59442134 271.65069011 147.85029968 282.04837407 152.06587219 293.26742554 C152.46548157 294.30254272 152.86509094 295.33765991 153.27680969 296.40414429 C156.39563993 305.74891007 157.04083815 315.35424549 157.67622375 325.1434021 C158.40342546 334.01526296 160.44293437 341.28028772 167.38423157 347.26693726 C173.8124578 351.92306544 180.35541016 352.42103686 188.06587219 351.26742554 C194.81199802 349.21755772 199.74876716 344.93115936 203.17915344 338.77914429 C205.65849344 333.68021178 205.63309851 328.9132902 205.50337219 323.32992554 C205.48870911 322.31503052 205.47404602 321.3001355 205.4589386 320.25448608 C205.23836765 311.34524601 204.20362015 302.91093502 202.06587219 294.26742554 C201.88314758 293.50961792 201.70042297 292.7518103 201.51216125 291.97103882 C196.69348638 272.62908358 188.30805705 254.04675198 176.06587219 238.26742554 C175.49223938 237.4746521 174.91860657 236.68187866 174.32759094 235.86508179 C160.52772194 217.47545592 143.0821007 204.09227993 123.06587219 193.26742554 C122.28598938 192.81883179 121.50610657 192.37023804 120.70259094 191.90805054 C100.84790416 181.0461615 56.68222002 165.87179633 37.06587219 183.26742554 Z M37.06587219 300.26742554 C31.10543426 309.04498587 30.26742399 316.72790926 31.06587219 327.26742554 C32.90920391 335.39585214 37.47431429 342.14950953 44.37837219 346.83773804 C52.99081994 351.79556158 62.1633109 352.89758509 71.96040344 350.58383179 C81.84393005 346.92495327 87.46153489 340.63060811 92.06587219 331.26742554 C94.81897278 323.19166381 93.97124394 313.14743915 90.38618469 305.51351929 C85.86388139 297.82025184 79.76432878 292.4673397 71.21040344 289.65805054 C57.96825883 287.24600234 46.05490909 290.03989911 37.06587219 300.26742554 Z " fill="#FFFFFF" transform="translate(65.93412780761719,31.732574462890625)"/>
</svg>
